<mxfile host="app.diagrams.net" modified="2021-10-18T13:00:28.311Z" agent="5.0 (Windows NT 10.0; WOW64) AppleWebKit/537.36 (KHTML, like Gecko) Chrome/94.0.4606.81 Safari/537.36" etag="K7TdVD30zUdWiul2Aoly" version="15.5.5" type="github">
  <diagram id="hNi1Diu1J6mja-uAa4c4" name="Page-1">
    <mxGraphModel dx="1422" dy="794" grid="1" gridSize="10" guides="1" tooltips="1" connect="1" arrows="1" fold="1" page="1" pageScale="1" pageWidth="827" pageHeight="1169" math="0" shadow="0">
      <root>
        <mxCell id="0" />
        <mxCell id="1" parent="0" />
        <mxCell id="KZRKxPDMvZBUxSaYrE-f-1" value="&amp;laquo;Annotation&amp;raquo;&lt;br/&gt;&lt;b&gt;Component&lt;/b&gt;" style="html=1;dropTarget=0;" vertex="1" parent="1">
          <mxGeometry x="280" y="260" width="450" height="270" as="geometry" />
        </mxCell>
        <mxCell id="KZRKxPDMvZBUxSaYrE-f-2" value="" style="shape=module;jettyWidth=8;jettyHeight=4;" vertex="1" parent="KZRKxPDMvZBUxSaYrE-f-1">
          <mxGeometry x="1" width="20" height="20" relative="1" as="geometry">
            <mxPoint x="-27" y="7" as="offset" />
          </mxGeometry>
        </mxCell>
      </root>
    </mxGraphModel>
  </diagram>
</mxfile>
